<svg id="Camada_1" data-name="Camada 1" xmlns="http://www.w3.org/2000/svg" viewBox="0 0 106.04 192.55"><defs><style>.cls-1{fill:#8c8c8c;}</style></defs><title>icon-back</title><path class="cls-1" d="M100.54,4c1.51.81,3.21,1.22,4.55,2.43a9.58,9.58,0,0,1,1.32,13.07,20.24,20.24,0,0,1-2,2.23q-38.48,38.49-77,76.94c-1.25,1.25-1.37,1.86-.05,3.18q38.76,38.61,77.41,77.32c3,3,4.46,6.34,3.17,10.54a9.65,9.65,0,0,1-15.23,4.75,21.76,21.76,0,0,1-1.93-1.79L6.22,108.13c-5.14-5.15-5.14-10.58,0-15.72Q48.3,50.34,90.35,8.25A22.26,22.26,0,0,1,96.4,4Z" transform="translate(-2.36 -3.99)"/></svg>