<svg id="Camada_1" data-name="Camada 1" xmlns="http://www.w3.org/2000/svg" viewBox="0 0 106.04 192.55"><defs><style>.cls-1{fill:#8c8c8c;}</style></defs><title>icon-go</title><path class="cls-1" d="M10.23,4C8.72,4.8,7,5.21,5.68,6.42A9.6,9.6,0,0,0,4.36,19.49a20.24,20.24,0,0,0,2,2.23q38.48,38.49,77,76.94c1.25,1.25,1.37,1.86,0,3.18Q44.65,140.45,6,179.16c-3,3-4.46,6.34-3.17,10.54a9.65,9.65,0,0,0,15.23,4.75A21.76,21.76,0,0,0,20,192.66l84.56-84.53c5.14-5.15,5.14-10.58,0-15.72Q62.48,50.34,20.42,8.25A22.26,22.26,0,0,0,14.37,4Z" transform="translate(-2.36 -3.99)"/></svg>